<svg width="21" height="21" viewBox="0 0 21 21" fill="none" xmlns="http://www.w3.org/2000/svg">
<path d="M1.43631 10.735L10.5 1.05529L19.5637 10.735C19.8377 11.0275 20 11.4331 20 11.8711V19.4556C20 19.8175 19.7377 20 19.5539 20H14.3134C14.1391 20 13.8864 19.8277 13.8864 19.476V14.8886C13.8864 12.9925 12.4305 11.34 10.5 11.34C8.56952 11.34 7.11364 12.9925 7.11364 14.8886V19.476C7.11364 19.8277 6.86089 20 6.68659 20H1.44614C1.26229 20 1 19.8175 1 19.4556V11.8711C1 11.4331 1.16235 11.0275 1.43631 10.735Z" fill="black" stroke="black" stroke-width="2"/>
</svg>
