<svg width="15" height="3" viewBox="0 0 15 3" fill="none" xmlns="http://www.w3.org/2000/svg">
<path d="M2.2998 3C3.12822 3 3.7998 2.32843 3.7998 1.5C3.7998 0.671573 3.12822 0 2.2998 0C1.47137 0 0.799797 0.671573 0.799797 1.5C0.799797 2.32843 1.47137 3 2.2998 3Z" fill="black"/>
<path d="M7.7998 3C8.62822 3 9.2998 2.32843 9.2998 1.5C9.2998 0.671573 8.62822 0 7.7998 0C6.97137 0 6.2998 0.671573 6.2998 1.5C6.2998 2.32843 6.97137 3 7.7998 3Z" fill="black"/>
<path d="M13.2998 3C14.1282 3 14.7998 2.32843 14.7998 1.5C14.7998 0.671573 14.1282 0 13.2998 0C12.4714 0 11.7998 0.671573 11.7998 1.5C11.7998 2.32843 12.4714 3 13.2998 3Z" fill="black"/>
</svg>
