<svg width="19" height="22" viewBox="0 0 19 22" fill="none" xmlns="http://www.w3.org/2000/svg">
<path fill-rule="evenodd" clip-rule="evenodd" d="M14.6007 6.94185H3.47927C2.84559 6.94185 2.32113 7.43455 2.2816 8.06699L1.80842 15.638C1.6573 18.0559 3.57759 20.0999 6.00024 20.0999H12.0797C14.5023 20.0999 16.4226 18.0559 16.2715 15.638L15.7983 8.06699C15.7588 7.43455 15.2343 6.94185 14.6007 6.94185ZM3.47927 5.14185C1.89508 5.14185 0.583928 6.37361 0.485109 7.95471L0.0119237 15.5257C-0.203963 18.9799 2.53931 21.9 6.00024 21.9H12.0797C15.5406 21.9 18.2839 18.9799 18.068 15.5257L17.5948 7.95471C17.496 6.37361 16.1849 5.14185 14.6007 5.14185H3.47927Z" fill="black"/>
<path fill-rule="evenodd" clip-rule="evenodd" d="M9.27609 1.8C8.08117 1.8 7.1125 2.76867 7.1125 3.96359V5.1419H5.3125V3.96359C5.3125 1.77456 7.08706 0 9.27609 0C11.4651 0 13.2397 1.77456 13.2397 3.96359V5.1419H11.4397V3.96359C11.4397 2.76867 10.471 1.8 9.27609 1.8Z" fill="black"/>
<path fill-rule="evenodd" clip-rule="evenodd" d="M9.27567 11.3117C10.4706 11.3117 11.4393 10.343 11.4393 9.14811L11.4393 8.91244C11.4393 8.41539 11.8422 8.01244 12.3393 8.01244C12.8363 8.01244 13.2393 8.41539 13.2393 8.91244L13.2393 9.1481C13.2393 11.3371 11.4647 13.1117 9.27567 13.1117C7.08664 13.1117 5.31208 11.3371 5.31208 9.14811L5.31208 8.91244C5.31208 8.41539 5.71502 8.01244 6.21208 8.01244C6.70913 8.01244 7.11208 8.41539 7.11208 8.91244L7.11208 9.14811C7.11208 10.343 8.08075 11.3117 9.27567 11.3117Z" fill="black"/>
</svg>
